<svg width="16" height="17" viewBox="0 0 16 17" fill="none" xmlns="http://www.w3.org/2000/svg">
<path fill-rule="evenodd" clip-rule="evenodd" d="M14.797 0H1.46141C1.00466 0 0.633789 0.415723 0.633789 0.927719V15.8763C0.633789 16.3883 1.00466 16.804 1.46141 16.804H8.1292V10.1524H6.33733V7.70182H8.1292V5.89014C8.1292 3.71963 9.47213 2.5381 11.2015 2.5381C12.0292 2.5381 12.9192 2.60812 13.1261 2.63875V4.90553H11.7481C10.8073 4.90553 10.6277 5.4044 10.6277 6.13958V7.70182H12.8685L12.5757 10.1524H10.6277V16.804H14.797C15.2537 16.804 15.6246 16.3883 15.6246 15.8763V0.927719C15.6246 0.415723 15.2537 0 14.797 0Z" fill="#33403D"/>
</svg>
