<svg width="16" height="17" viewBox="0 0 16 17" fill="none" xmlns="http://www.w3.org/2000/svg">
<path fill-rule="evenodd" clip-rule="evenodd" d="M5.22389 0H11.4701C13.8748 0 15.8424 2.20552 15.8424 4.90116V11.9028C15.8424 14.5985 13.8748 16.804 11.4701 16.804H5.22389C2.81911 16.804 0.851562 14.5985 0.851562 11.9028V4.90116C0.851562 2.20552 2.81911 0 5.22389 0ZM13.6765 2.4276C13.0831 1.76682 12.2984 1.39924 11.4708 1.39924H5.22465C4.39703 1.39924 3.60845 1.76245 3.01897 2.4276C2.42949 3.09276 2.10156 3.97234 2.10156 4.90006V11.9017C2.10156 12.8294 2.42558 13.7134 3.01897 14.3742C3.61236 15.035 4.39703 15.4025 5.22465 15.4025H11.4708C12.2984 15.4025 13.087 15.0393 13.6765 14.3742C14.266 13.709 14.5939 12.8294 14.5939 11.9017V4.90006C14.5939 3.97234 14.2699 3.08839 13.6765 2.4276Z" fill="#33403D"/>
<path fill-rule="evenodd" clip-rule="evenodd" d="M12.445 4.85481C11.9269 4.85481 11.51 4.38757 11.51 3.8068C11.51 3.22603 11.9269 2.75879 12.445 2.75879C12.9592 2.75879 13.3799 3.22603 13.3799 3.8068C13.3799 4.38757 12.9592 4.85481 12.445 4.85481ZM8.39451 5.55366C9.76964 5.55366 10.8877 6.80691 10.8877 8.34835C10.8877 9.8898 9.76964 11.143 8.39451 11.143C7.01939 11.143 5.90137 9.8898 5.90137 8.34835C5.90137 6.80691 7.01939 5.55366 8.39451 5.55366ZM4.6543 8.34753C4.6543 6.03317 6.32938 4.15549 8.39401 4.15549C10.4586 4.15549 12.1337 6.03317 12.1337 8.34753C12.1337 10.6619 10.4586 12.5396 8.39401 12.5396C6.32938 12.5396 4.6543 10.6619 4.6543 8.34753Z" fill="#33403D"/>
</svg>
