<svg width="16" height="17" viewBox="0 0 16 17" fill="none" xmlns="http://www.w3.org/2000/svg">
<path fill-rule="evenodd" clip-rule="evenodd" d="M15.6578 2.34679C15.1051 2.66502 14.5142 2.87994 13.8916 2.97913C14.5269 2.48317 15.0161 1.69792 15.2448 0.763879C14.6508 1.22263 13.9932 1.5574 13.2912 1.73512C12.7289 0.953993 11.9284 0.466309 11.0453 0.466309C9.34572 0.466309 7.97022 2.26 7.97022 4.47111C7.97022 4.78521 7.99563 5.09105 8.04963 5.38449C5.49239 5.21917 3.22423 3.62386 1.70895 1.19784C1.44528 1.78884 1.2928 2.47904 1.2928 3.21057C1.2928 4.59923 1.83919 5.82671 2.66513 6.54584C2.15686 6.5293 1.68036 6.34746 1.26739 6.04575V6.09535C1.26739 8.03782 2.3284 9.65379 3.73568 10.0216C3.47837 10.1125 3.20517 10.1621 2.92562 10.1621C2.72867 10.1621 2.53489 10.1373 2.34746 10.0878C2.7382 11.6789 3.87545 12.8361 5.22237 12.8692C4.17089 13.9438 2.84303 14.5844 1.40081 14.5844C1.15303 14.5844 0.908421 14.5637 0.666992 14.5265C2.02344 15.6755 3.64038 16.3367 5.37486 16.3367C11.0389 16.3367 14.133 10.2324 14.133 4.93813C14.133 4.76455 14.1298 4.59096 14.1235 4.42151C14.7239 3.8553 15.2448 3.15271 15.6578 2.34679Z" fill="#33403D"/>
</svg>
